<?xml version="1.0" encoding="utf-8"?>
<!-- Generator: Adobe Illustrator 26.0.1, SVG Export Plug-In . SVG Version: 6.00 Build 0)  -->
<svg version="1.1" id="Layer_1" xmlns="http://www.w3.org/2000/svg" xmlns:xlink="http://www.w3.org/1999/xlink" x="0px" y="0px"
	 viewBox="0 0 68.68 68.68" style="enable-background:new 0 0 68.68 68.68;" xml:space="preserve">
<style type="text/css">
	.st0{fill:url(#SVGID_1_);}
</style>
<g>
	
		<linearGradient id="SVGID_1_" gradientUnits="userSpaceOnUse" x1="-974.6003" y1="1039.7255" x2="-973.6003" y2="1039.7255" gradientTransform="matrix(68.6819 0 0 -51.686 66937.4297 53773.5547)">
		<stop  offset="0" style="stop-color:#56C9FF"/>
		<stop  offset="1" style="stop-color:#0077FF"/>
	</linearGradient>
	<path class="st0" d="M65.75,27.23L50,11.45c-3.93-3.92-10.28-3.92-14.21,0l-1.45,1.42l0,0l-1.42-1.42
		C29.03,7.53,22.7,7.51,18.78,11.4c-0.02,0.02-0.04,0.04-0.06,0.06L2.94,27.23c-3.92,3.93-3.92,10.28,0,14.21l15.78,15.78
		c3.89,3.92,10.22,3.95,14.14,0.06c0.02-0.02,0.04-0.04,0.06-0.06l1.42-1.42l0,0l1.42,1.42c3.93,3.92,10.28,3.92,14.21,0
		l15.78-15.78C69.66,37.52,69.66,31.16,65.75,27.23z M44.83,37.56L34.34,48.06L23.86,37.56c-1.78-1.78-1.78-4.67,0-6.45c0,0,0,0,0,0
		l10.48-10.49l10.49,10.49C46.61,32.9,46.61,35.78,44.83,37.56C44.83,37.56,44.83,37.56,44.83,37.56z M29.05,53.35
		c-1.78,1.78-4.68,1.78-6.46,0L6.81,37.56c-1.78-1.78-1.78-4.67,0-6.45c0,0,0,0,0,0l15.78-15.78c1.78-1.78,4.66-1.79,6.45-0.01
		c0,0,0.01,0.01,0.01,0.01l1.42,1.42L20,27.23c-3.92,3.93-3.92,10.28,0,14.21l10.47,10.48L29.05,53.35z M61.87,37.56L46.09,53.35
		c-1.78,1.78-4.68,1.78-6.46,0l-1.41-1.42L48.7,41.44c3.92-3.93,3.92-10.28,0-14.21L38.22,16.75l1.41-1.42
		c1.78-1.78,4.66-1.79,6.45-0.01c0,0,0.01,0.01,0.01,0.01l15.78,15.78C63.65,32.9,63.65,35.78,61.87,37.56
		C61.87,37.56,61.87,37.56,61.87,37.56z"/>
</g>
</svg>
