<svg xmlns="http://www.w3.org/2000/svg" viewBox="0 0 68.68 51.65">
    <defs>
        <style>.cls-1{fill:url(#grad);}</style>
        <linearGradient id="grad" x1="0%" y1="0%" x2="100%" y2="0%">
            <stop offset="0%" style="stop-color:#56c9ff;stop-opacity:1" />
            <stop offset="100%" style="stop-color:#0077ff;stop-opacity:1" />
        </linearGradient>
    </defs>
    <g>
        <path class="cls-1" d="M65.75,18.72,50,2.94a10.06,10.06,0,0,0-14.21,0L34.34,4.36h0L32.92,2.94a10,10,0,0,0-14.2,0L2.94,18.72a10.06,10.06,0,0,0,0,14.21L18.72,48.71a10,10,0,0,0,14.2,0l1.42-1.42h0l1.42,1.42a10.06,10.06,0,0,0,14.21,0L65.75,32.93A10.07,10.07,0,0,0,65.75,18.72ZM44.83,29.05,34.34,39.54,23.86,29.05a4.56,4.56,0,0,1,0-6.45L34.34,12.11,44.83,22.6A4.56,4.56,0,0,1,44.83,29.05ZM29.05,44.83a4.57,4.57,0,0,1-6.46,0L6.81,29.05a4.56,4.56,0,0,1,0-6.45L22.59,6.82a4.56,4.56,0,0,1,6.46,0l1.42,1.42L20,18.72a10.06,10.06,0,0,0,0,14.21L30.47,43.41ZM61.87,29.05,46.09,44.83a4.57,4.57,0,0,1-6.46,0l-1.41-1.42L48.7,32.93a10.06,10.06,0,0,0,0-14.21L38.22,8.24l1.41-1.42a4.56,4.56,0,0,1,6.46,0L61.87,22.6A4.56,4.56,0,0,1,61.87,29.05Z"/>
    </g>
</svg>