<?xml version="1.0" encoding="UTF-8"?><svg id="Layer_1" xmlns="http://www.w3.org/2000/svg" viewBox="0 0 1630.13 496.61"><defs><style>.cls-1{letter-spacing:-.02em;}.cls-2{letter-spacing:-.05em;}.cls-3{letter-spacing:-.02em;}.cls-4{letter-spacing:-.06em;}.cls-5{fill:#f19;}.cls-6{letter-spacing:0em;}.cls-7{letter-spacing:-.03em;}.cls-8,.cls-9{fill:#fff;}.cls-8,.cls-9,.cls-10{font-family:FONTSPRINGDEMO-BlackRegular, 'FONTSPRING DEMO - Black';}.cls-8,.cls-10{font-size:230.76px;}.cls-11{fill:#1fe;}.cls-9{font-size:85.68px;}.cls-10{fill:#001358;}</style></defs><g><path class="cls-5" d="M177.02,161.6l127.98-127.98-17.3-17.3C277.17,5.8,263.17,0,248.29,0s-28.88,5.8-39.4,16.32L16.29,208.91c-21.73,21.73-21.73,57.08,0,78.81l192.58,192.59c21.73,21.73,57.09,21.73,78.82,0l17.3-17.3-127.98-127.98c-47.81-47.81-47.81-125.61,0-173.43Z"/><path class="cls-5" d="M1421.25,16.32c-10.53-10.53-24.52-16.32-39.41-16.32s-28.88,5.8-39.41,16.32l-17.3,17.3,127.98,127.98c47.81,47.81,47.81,125.61,0,173.43l-127.99,127.98,17.3,17.3c21.73,21.73,57.09,21.73,78.82,0l192.59-192.59c21.73-21.73,21.73-57.08,0-78.81L1421.25,16.32Z"/></g><g><rect class="cls-11" x="300.5" y="117.46" width="560.49" height="213.61" rx="14.42" ry="14.42"/><text class="cls-10" transform="translate(302.75 307.14)"><tspan x="0" y="0">Hac</tspan><tspan class="cls-6" x="417.9" y="0">k</tspan></text><text class="cls-8" transform="translate(924.89 307.14)"><tspan x="0" y="0">U</tspan><tspan class="cls-4" x="151.84" y="0">T</tspan><tspan class="cls-3" x="264.91" y="0">A</tspan></text><text class="cls-9" transform="translate(609.56 431.17)"><tspan class="cls-2" x="0" y="0">F</tspan><tspan x="41.9" y="0">A</tspan><tspan class="cls-1" x="95.54" y="0">L</tspan><tspan class="cls-7" x="137.61" y="0">L</tspan><tspan x="178.82" y="0" xml:space="preserve"> 2022</tspan></text></g><rect class="cls-5" x="888.99" y="286.71" width="35.13" height="35.13"/></svg>